PathFileType	4	(X/Y/Z)	C:/Users/beibeiliu/ov580/test_trc\sequence.29_training_dense_right.trc
DataRate	CameraRate	NumFrames	NumMarkers	Units	OrigDataRate	OrigDataStartFrame	OrigNumFrames
120	120	12	19	mm	120	86	200
Frame#	Time	ThumbCMC			ThumbMCP			ThumbIP			ThumbTip			IndexMCP			IndexPIP			IndexTip			MiddleMCP			MiddlePIP			MiddleTip			RingMCP			RingPIP			RingTip			PinkyMCP			PinkyPIP			PinkyTip			BackHand1			BackHand2			BackHand3	
		X0	Y0	Z0	X1	Y1	Z1	X2	Y2	Z2	X3	Y3	Z3	X4	Y4	Z4	X5	Y5	Z5	X6	Y6	Z6	X7	Y7	Z7	X8	Y8	Z8	X9	Y9	Z9	X10	Y10	Z10	X11	Y11	Z11	X12	Y12	Z12	X13	Y13	Z13	X14	Y14	Z14	X15	Y15	Z15	X16	Y16	Z16	X17	Y17	Z17	X18	Y18	Z18	
85	0.708333	86.5403	-31.0651	85.0248	63.9114	-33.8121	67.3012	51.8459	-34.0884	43.2967	40.8706	-35.1796	23.2758	104.121	-19.7354	16.4548	98.7408	-18.9596	-11.3154	93.3758	-24.9714	-38.4098	123.017	-34.349	5.76751	122.094	-42.9088	-17.8748	110.717	-57.4021	-47.6919	139.8	-54.68	10.3379	134.491	-60.7671	-12.3963	124.95	-76.6572	-37.3172	149.433	-72.4259	22.5694	149.473	-83.1885	2.76102	140.371	-93.1408	-22.6577	143.907	-44.2683	65.4674	145.726	-47.5192	95.9856	124.305	-27.1641	80.3306	
86	0.716667	88.9767	-21.5734	76.9455	65.8568	-24.6063	61.1097	52.3039	-22.6199	34.23	44.1427	-25.9653	15.648	108.797	-9.69784	5.61909	103.849	-11.0238	-17.2664	99.3564	-18.4972	-48.5549	129.946	-26.8537	-0.0989929	125.841	-34.5891	-28.533	113.032	-49.0105	-55.2855	143.316	-45.5371	0.49514	136.41	-52.3121	-23.8274	123.605	-64.827	-46.8025	152.066	-63.9663	15.1636	150.726	-73.1392	-7.94273	146.627	-83.4392	-29.5468	148.236	-37.5773	55.0117	151.889	-37.6085	86.2415	127.894	-16.742	68.6073	
87	0.725	87.7673	-12.6795	78.1772	65.2077	-14.3998	55.4096	49.4154	-13.1234	32.5154	43.35	-17.1609	9.52446	108.187	-0.929948	4.21517	101.74	-1.02035	-19.3373	94.4288	-4.29382	-45.6505	126.201	-16.5407	-4.20022	120.19	-23.2622	-28.9654	113.323	-39.3204	-54.4545	139.589	-34.1874	-0.277147	136.068	-44.8867	-25.3279	123.464	-55.5978	-47.0101	151.24	-56.2863	13.2053	147.772	-65.1299	-8.4856	144.479	-78.7806	-32.5969	148.641	-27.5515	55.3287	147.421	-29.2509	82.392	124.953	-8.75165	70.0366	
88	0.733333	81.5233	-6.92134	82.6484	56.4284	-8.08156	61.9315	45.6909	-9.1293	38.6519	39.9693	-14.3604	14.5092	100.893	4.15429	8.27909	94.6203	4.36616	-20.5349	85.4077	-0.534628	-45.6625	121.742	-12.3401	-1.21317	115.945	-18.4132	-25.3533	104.474	-31.6704	-53.1971	130.261	-26.3872	1.28306	127.164	-37.149	-24.1502	117.563	-53.0302	-47.4936	143.339	-46.3182	16.2018	143.107	-59.6283	-7.45793	138.155	-71.2541	-32.1047	138.489	-19.7465	53.6557	140.41	-19.782	83.1953	117.642	-0.0465902	70.6943	
89	0.741667	75.3626	-4.16279	82.9484	52.2291	-8.37711	67.564	37.2317	-6.98006	43.0831	32.4563	-12.7479	23.554	91.1753	6.9335	13.76	83.1364	8.31387	-10.5816	81.3026	0.0974212	-40.8355	113.117	-9.16557	6.13717	106.053	-14.7719	-22.7662	95.236	-29.753	-48.7077	124.211	-23.0248	6.495	122.923	-34.5541	-16.1563	110.107	-45.6501	-39.5765	139.517	-44.4655	20.338	136.972	-52.2537	-0.100175	135.775	-64.2773	-23.2614	135.304	-17.4822	62.0748	137.183	-18.3649	88.4922	110.152	4.96181	73.4369	
90	0.75	71.6128	-0.108239	93.4226	48.4224	-3.97951	73.0215	34.3382	-3.81988	48.6547	25.8482	-8.60553	28.8556	85.7247	13.7889	20.3199	82.5615	10.041	-4.13159	75.9833	5.47999	-29.751	110.687	-3.19611	15.0119	103.137	-9.20144	-14.0787	95.7683	-23.2516	-38.8407	124.617	-19.3901	16.6378	118.243	-29.666	-12.0085	108.022	-44.1663	-33.9326	136.172	-37.3511	28.847	137.154	-49.6162	6.17475	132.547	-58.211	-14.8587	130.691	-9.75842	66.0074	131.717	-10.1701	100.364	106.84	10.7537	81.6447	
91	0.758333	74.7334	3.69229	100.56	48.7623	1.40559	80.6824	36.6631	-1.71687	62.2972	26.1112	-3.37489	39.4425	89.8302	16.7603	28.8722	80.6626	16.7708	1.26256	76.5179	9.58178	-22.716	110.424	1.99304	21.9697	104.18	-5.30834	-8.6515	95.6782	-19.5023	-31.9733	123.64	-13.0511	23.6407	121.194	-25.5345	-3.8079	108.839	-36.4624	-22.8743	139.018	-34.2679	38.1169	135.719	-44.0543	13.3196	132.6	-53.3321	-6.59193	132.844	-5.16335	74.7035	134.664	-6.64081	107.515	107.543	13.6604	93.3164	
92	0.766667	70.5336	5.92145	107.985	50.1879	-0.365726	90.4392	32.6531	1.11337	70.2517	28.3556	-4.02732	47.2023	85.7726	19.3367	38.8819	79.4688	19.8518	10.3807	76.6056	11.2249	-13.9361	108.586	3.61951	31.2588	101.206	-3.09584	2.29964	97.4641	-19.4088	-20.6301	120.433	-11.96	33.5342	120.19	-21.67	9.93024	107.309	-38.4547	-17.0636	136.125	-32.778	43.5345	133.559	-40.1638	25.9364	128.914	-51.7795	0.0215723	131.082	-5.60637	85.6982	133.396	-7.58739	117.965	105.416	12.4159	101.998	
93	0.775	67.6499	4.59831	115.873	43.393	-0.366872	99.1886	29.9114	0.770434	72.9387	19.8769	-2.19358	53.7547	83.7083	17.6605	46.786	76.2677	19.7135	20.7443	74.3646	9.18732	-7.43455	103.563	3.39825	40.5798	101.064	-7.03254	8.1567	90.1121	-20.5424	-15.7247	117.499	-14.7278	40.2007	115.161	-23.762	17.2706	103.538	-34.5227	-5.28503	130.327	-34.2806	52.7388	130.806	-44.0895	31.6872	124.715	-54.7745	7.3196	128.694	-8.93932	91.3984	125.187	-8.10634	126.401	103.2	13.4777	106.06	
94	0.783333	63.5917	2.50929	123.107	39.4965	-1.10887	105.312	23.8208	0.721374	78.3687	17.9183	-4.71977	54.9422	80.9272	14.905	48.7083	73.6415	16.0769	21.1501	66.5378	11.2073	-1.76707	100.099	1.58402	42.53	95.1245	-7.35689	12.586	85.3221	-22.4496	-12.4332	114.573	-15.9259	44.0803	111.469	-26.5384	20.7454	101.142	-39.2427	-2.51472	122.953	-33.439	59.4805	123.489	-43.0456	35.5452	119.054	-55.8623	9.08137	122.554	-10.6187	96.1567	123.006	-10.0072	124.439	97.6413	13.9008	114.121	
95	0.791667	56.3475	6.65712	123.943	33.1753	2.24979	107.542	18.2934	1.93371	79.9062	15.3434	-3.96344	60.3466	73.0772	17.9067	54.0329	67.6866	16.6927	24.7994	60.6664	11.0058	1.4664	96.749	0.600514	46.9234	89.7201	-4.66112	16.6885	81.7265	-20.7609	-8.04871	107.427	-13.2381	48.9243	104.286	-23.3529	23.2757	93.5777	-37.362	-0.129902	118.634	-31.7039	59.8836	118.675	-44.081	36.1168	114.092	-55.1819	14.9208	116.682	-5.32261	99.1195	118.868	-6.2824	127.734	95.0487	13.2763	111.817	
96	0.8	54.8445	10.9818	125.885	35.7299	2.89986	106.002	19.7792	3.43645	86.3347	12.47	-1.48756	62.7635	70.7748	21.5448	55.4289	63.8623	21.6207	30.5323	62.8169	12.0687	4.27335	91.7869	5.28534	44.0409	90.001	-4.61562	18.2533	79.0183	-16.0757	-4.52787	107.425	-13.6831	51.5805	101.434	-23.639	21.6735	87.4148	-33.6742	0.294948	120.532	-32.6302	64.0921	114.617	-40.1153	37.9948	115.108	-52.3728	17.7836	113.897	-3.15448	102.781	115.553	-1.83824	129.315	92.7532	17.2403	118.341	
